<mxfile host="Electron" agent="Mozilla/5.0 (X11; Linux x86_64) AppleWebKit/537.36 (KHTML, like Gecko) draw.io/24.7.17 Chrome/128.0.6613.36 Electron/32.0.1 Safari/537.36" version="24.7.17">
  <diagram name="Page-1" id="7XgPNf_dPwxyvwhPxWPu">
    <mxGraphModel dx="928" dy="998" grid="1" gridSize="10" guides="1" tooltips="1" connect="1" arrows="1" fold="1" page="1" pageScale="1" pageWidth="850" pageHeight="1100" math="0" shadow="0">
      <root>
        <mxCell id="0" />
        <mxCell id="1" parent="0" />
        <mxCell id="jxzsNt9wO2nBTUYMpyb2-3" style="edgeStyle=orthogonalEdgeStyle;rounded=0;orthogonalLoop=1;jettySize=auto;html=1;exitX=1;exitY=0.5;exitDx=0;exitDy=0;entryX=0.5;entryY=0;entryDx=0;entryDy=0;" parent="1" source="jxzsNt9wO2nBTUYMpyb2-1" edge="1">
          <mxGeometry relative="1" as="geometry">
            <mxPoint x="425" y="530" as="targetPoint" />
          </mxGeometry>
        </mxCell>
        <mxCell id="jxzsNt9wO2nBTUYMpyb2-1" value="E" style="triangle;whiteSpace=wrap;html=1;direction=south;" parent="1" vertex="1">
          <mxGeometry x="385" y="380" width="80" height="60" as="geometry" />
        </mxCell>
        <mxCell id="jxzsNt9wO2nBTUYMpyb2-4" value="Initialize&lt;br&gt;all element&lt;div&gt;&lt;br&gt;&lt;/div&gt;" style="ellipse;shape=cloud;whiteSpace=wrap;html=1;" parent="1" vertex="1">
          <mxGeometry x="320" y="540" width="220" height="140" as="geometry" />
        </mxCell>
        <mxCell id="uOxBx3G_vbGTZe_jV91H-2" value="Start Intro" style="ellipse;shape=cloud;whiteSpace=wrap;html=1;" vertex="1" parent="1">
          <mxGeometry x="300" y="740" width="225" height="150" as="geometry" />
        </mxCell>
        <mxCell id="uOxBx3G_vbGTZe_jV91H-3" style="edgeStyle=orthogonalEdgeStyle;rounded=0;orthogonalLoop=1;jettySize=auto;html=1;exitX=0.55;exitY=0.95;exitDx=0;exitDy=0;exitPerimeter=0;entryX=0.625;entryY=0.2;entryDx=0;entryDy=0;entryPerimeter=0;" edge="1" parent="1" source="jxzsNt9wO2nBTUYMpyb2-4" target="uOxBx3G_vbGTZe_jV91H-2">
          <mxGeometry relative="1" as="geometry" />
        </mxCell>
        <mxCell id="uOxBx3G_vbGTZe_jV91H-4" value="Chpt 1&lt;div&gt;Chpt 2&lt;/div&gt;&lt;div&gt;...&lt;/div&gt;" style="ellipse;shape=cloud;whiteSpace=wrap;html=1;" vertex="1" parent="1">
          <mxGeometry x="300" y="920" width="225" height="150" as="geometry" />
        </mxCell>
        <mxCell id="uOxBx3G_vbGTZe_jV91H-5" value="End show result" style="ellipse;shape=cloud;whiteSpace=wrap;html=1;" vertex="1" parent="1">
          <mxGeometry x="300" y="1120" width="225" height="150" as="geometry" />
        </mxCell>
      </root>
    </mxGraphModel>
  </diagram>
</mxfile>
